<svg xmlns:mydata="http://www.w3.org/2000/svg" mydata:contrastcolor="393b3c" mydata:template="Contrast" mydata:presentation="2.5" mydata:layouttype="undefined" mydata:specialfontid="undefined" mydata:id1="063" mydata:id2="062" mydata:companyname="Talent Sync" mydata:companytagline="" version="1.1" xmlns="http://www.w3.org/2000/svg" xmlns:xlink="http://www.w3.org/1999/xlink" viewBox="0 0 550 470" class="svg-shirt"><defs style="fill: rgb(0, 0, 0);"><linearGradient x1="146" y1="235" x2="404" y2="235" gradientUnits="userSpaceOnUse" id="color-124163" style="fill: rgb(0, 0, 0);"><stop offset="0" stop-color="#bdc3c7" style="fill: rgb(0, 0, 0);"/><stop offset="1" stop-color="#767a7c" style="fill: rgb(0, 0, 0);"/></linearGradient></defs><g fill="url(#color-124163)" fill-rule="none" stroke="none" stroke-width="1" stroke-linecap="butt" stroke-linejoin="miter" stroke-miterlimit="10" stroke-dasharray="" stroke-dashoffset="0" font-family="none" font-weight="none" font-size="none" text-anchor="none" style="mix-blend-mode: normal; fill: rgb(0, 0, 0);"><g data-paper-data="{&quot;isGlobalGroup&quot;:true,&quot;bounds&quot;:{&quot;x&quot;:145.99999999999997,&quot;y&quot;:105.99999999999997,&quot;width&quot;:258,&quot;height&quot;:258}}" style="fill: rgb(0, 0, 0);"><g data-paper-data="{&quot;isIcon&quot;:&quot;true&quot;,&quot;iconType&quot;:&quot;icon&quot;,&quot;rawIconId&quot;:&quot;199992&quot;,&quot;selectedEffects&quot;:{&quot;container&quot;:&quot;circle_simple_filled&quot;,&quot;transformation&quot;:&quot;&quot;,&quot;pattern&quot;:&quot;&quot;},&quot;isDetailed&quot;:false,&quot;fillRule&quot;:&quot;nonzero&quot;,&quot;blockLetter&quot;:&quot;O&quot;,&quot;blockLetterId&quot;:0,&quot;relativeBoundsIconToContainer&quot;:{&quot;top&quot;:-2.129516001517352e-16,&quot;left&quot;:-8.518064006069409e-17},&quot;widthRatioIconToContainer&quot;:0.6432480950880921,&quot;heightRatioIconToContainer&quot;:0.6381742179314591,&quot;bounds&quot;:{&quot;x&quot;:199.27842301298128,&quot;y&quot;:159.27842301298128,&quot;width&quot;:151.4426558074065,&quot;height&quot;:151.4426558074065},&quot;iconStyle&quot;:&quot;standalone&quot;,&quot;suitableAsStandaloneIcon&quot;:true}" fill-rule="nonzero" style="fill: rgb(0, 0, 0);"><path d="M199.27842,234.99975c0,-41.81973 33.9016,-75.72133 75.72133,-75.72133c41.81973,0 75.72133,33.9016 75.72133,75.72133c0,41.81973 -33.9016,75.72133 -75.72133,75.72133c-41.81973,0 -75.72133,-33.9016 -75.72133,-75.72133zM263.02079,254.61781l-30.2344,17.4559v-74.14793l64.21446,37.07396l-17.837,10.29902l6.49424,3.74877l24.33281,-14.04779l-83.69874,-48.3234v96.64679l43.22288,-24.95501zM280.23871,211.77292l6.49424,3.75033l30.48017,-17.59745v74.14793l-64.21446,-37.07396l17.59279,-10.15746l-6.49424,-3.74877l-24.08859,13.90624l83.69874,48.3234v-96.64679z" data-paper-data="{&quot;isPathIcon&quot;:true}" style="fill: rgb(0, 0, 0);"/></g><g data-paper-data="{&quot;isMirroredPrimaryText&quot;:true}" fill-rule="nonzero" style="fill: rgb(0, 0, 0);"><path d="M181.84431,264.72641l-16.1245,4.75807l-1.19163,-4.03828l16.1245,-4.75807l-1.80012,-6.10039l3.6946,-1.09021l4.79187,16.23906l-3.6946,1.09021z" data-paper-data="{&quot;glyphName&quot;:&quot;T&quot;,&quot;glyphIndex&quot;:0,&quot;firstGlyphOfWord&quot;:true,&quot;word&quot;:1}" style="fill: rgb(0, 0, 0);"/><path d="M171.7411,285.35766l21.25241,-4.70057l2.80431,4.70756l-14.24545,16.46305l-2.2083,-3.70704l2.90144,-3.32727l-4.07275,-6.83686l-4.29213,0.99273zM181.95236,287.09532l2.85016,4.78452l5.91586,-6.7566z" data-paper-data="{&quot;glyphName&quot;:&quot;A&quot;,&quot;glyphIndex&quot;:1,&quot;word&quot;:1}" style="fill: rgb(0, 0, 0);"/><path d="M191.04173,313.43717l14.28119,-14.93474l3.04306,2.9099l-11.61895,12.15067l6.28036,6.00553l-2.66225,2.78408z" data-paper-data="{&quot;glyphName&quot;:&quot;L&quot;,&quot;glyphIndex&quot;:2,&quot;word&quot;:1}" style="fill: rgb(0, 0, 0);"/><path d="M212.1164,331.15816l10.28736,-17.9212l11.64101,6.68232l-1.85083,3.22426l-7.98944,-4.5862l-2.19275,3.81991l6.7334,3.86519l-1.85827,3.23721l-6.7334,-3.86519l-2.46778,4.29902l7.98944,4.5862l-1.91773,3.3408z" data-paper-data="{&quot;glyphName&quot;:&quot;E&quot;,&quot;glyphIndex&quot;:3,&quot;word&quot;:1}" style="fill: rgb(0, 0, 0);"/><path d="M249.94944,346.87081l-3.64813,-16.16672l-3.64415,14.30964l-3.99339,-1.01697l5.09959,-20.02482l5.29558,1.34859l3.34806,15.2275l3.4378,-13.49939l4.00786,1.02066l-5.09959,20.02482z" data-paper-data="{&quot;glyphName&quot;:&quot;N&quot;,&quot;glyphIndex&quot;:4,&quot;word&quot;:1}" style="fill: rgb(0, 0, 0);"/><path d="M279.94551,332.6571l0.48558,16.80485l-4.20867,0.12161l-0.48558,-16.80485l-6.35778,0.18371l-0.11126,-3.85049l16.92424,-0.48903l0.11126,3.85049z" data-paper-data="{&quot;glyphName&quot;:&quot;T&quot;,&quot;glyphIndex&quot;:5,&quot;lastGlyphOfWord&quot;:true,&quot;word&quot;:1}" style="fill: rgb(0, 0, 0);"/><path d="M329.99593,329.01362c0.91092,1.85922 0.99938,3.58381 0.26538,5.17378c-0.734,1.58997 -2.28982,2.96741 -4.66748,4.13233c-1.64469,0.80581 -3.2062,1.2328 -4.68452,1.28095c-1.47832,0.04816 -2.89516,-0.34946 -4.25054,-1.19285l1.81903,-3.6512c0.72685,0.39761 1.3569,0.65421 1.89016,0.76981c0.53326,0.1156 1.10518,0.12912 1.71576,0.04057c0.61058,-0.08855 1.26001,-0.30144 1.94828,-0.63865c1.02793,-0.50363 1.74367,-1.07322 2.14722,-1.70876c0.40355,-0.63554 0.42796,-1.31533 0.07323,-2.03935c-0.20145,-0.41117 -0.47062,-0.70604 -0.8075,-0.8846c-0.33688,-0.17856 -0.7557,-0.26986 -1.25648,-0.2739c-0.50077,-0.00404 -1.31075,0.10738 -2.42993,0.33428c-1.09237,0.21376 -2.12996,0.39791 -3.11279,0.55246c-0.98282,0.15455 -1.88777,0.17395 -2.71483,0.0582c-0.82706,-0.11574 -1.57483,-0.40335 -2.24331,-0.86281c-0.66848,-0.45946 -1.23921,-1.17187 -1.71218,-2.13724c-0.86274,-1.76089 -0.94166,-3.42643 -0.23676,-4.9966c0.7049,-1.57017 2.16573,-2.8983 4.38249,-3.9844c3.20894,-1.57221 6.018,-1.58513 8.42718,-0.03878l-1.77907,3.66487c-0.89489,-0.53697 -1.74285,-0.81981 -2.54391,-0.84854c-0.80105,-0.02873 -1.63957,0.1715 -2.51555,0.60068c-0.87598,0.42918 -1.51109,0.9371 -1.90534,1.52375c-0.39425,0.58665 -0.42496,1.21964 -0.09213,1.89897c0.29342,0.59888 0.8039,0.91684 1.53143,0.95388c0.72754,0.03704 1.88075,-0.13171 3.45964,-0.50625c0.88732,-0.1798 1.77336,-0.33958 2.65813,-0.47934c0.88477,-0.13976 1.73175,-0.14739 2.54093,-0.02288c0.80918,0.1245 1.56343,0.43664 2.26275,0.93641c0.69932,0.49977 1.30955,1.2815 1.8307,2.34519z" data-paper-data="{&quot;glyphName&quot;:&quot;S&quot;,&quot;glyphIndex&quot;:6,&quot;firstGlyphOfWord&quot;:true,&quot;word&quot;:2}" style="fill: rgb(0, 0, 0);"/><path d="M346.31352,314.36474l5.15086,5.96792l-3.21002,2.77054l-5.09232,-5.9001l-13.30331,-5.51898l3.48128,-3.00467l8.70016,3.9104l-2.52879,-9.23686l3.35695,-2.89736z" data-paper-data="{&quot;glyphName&quot;:&quot;Y&quot;,&quot;glyphIndex&quot;:7,&quot;word&quot;:2}" style="fill: rgb(0, 0, 0);"/><path d="M372.62429,295.10107l-16.47302,-1.81967l12.34082,8.10862l-2.26287,3.44395l-17.26966,-11.34715l3.00076,-4.56698l15.48729,1.79727l-11.64205,-7.64949l2.27107,-3.45643l17.26966,11.34715z" data-paper-data="{&quot;glyphName&quot;:&quot;N&quot;,&quot;glyphIndex&quot;:8,&quot;word&quot;:2}" style="fill: rgb(0, 0, 0);"/><path d="M383.99494,258.38181c1.01495,1.22769 1.63603,2.5481 1.86323,3.96124c0.2272,1.41313 0.07161,3.02099 -0.46678,4.82356c-1.83164,6.13256 -6.1857,8.17193 -13.06218,6.1181c-3.51931,-1.05113 -5.8861,-2.60467 -7.10036,-4.66062c-1.21427,-2.05595 -1.38414,-4.54792 -0.50963,-7.47591c0.57826,-1.9361 1.37636,-3.41698 2.39429,-4.44264c1.01793,-1.02566 2.15165,-1.6999 3.40116,-2.02272l1.49628,3.85943c-0.82343,0.2527 -1.44471,0.52422 -1.86385,0.81456c-0.41914,0.29034 -0.77765,0.65593 -1.07553,1.09676c-0.29788,0.44083 -0.54794,0.99983 -0.75019,1.67698c-0.48426,1.62136 -0.33575,3.01099 0.44554,4.1689c0.78129,1.1579 2.38318,2.09862 4.80569,2.82216c2.26037,0.67511 4.06742,0.78113 5.42116,0.31804c1.35374,-0.46309 2.29125,-1.56731 2.81254,-3.31266c0.35038,-1.1731 0.399,-2.15325 0.14587,-2.94045c-0.25313,-0.7872 -0.6719,-1.55894 -1.25629,-2.31522z" data-paper-data="{&quot;glyphName&quot;:&quot;C&quot;,&quot;glyphIndex&quot;:9,&quot;lastGlyphOfWord&quot;:true,&quot;word&quot;:2}" style="fill: rgb(0, 0, 0);"/></g><g data-paper-data="{&quot;isContainerElementsWrapper&quot;:true}" fill-rule="evenodd" style="fill: rgb(0, 0, 0);"><path d="M224.77967,116.14755c-15.43628,6.52897 -29.10179,15.74084 -40.99652,27.63559c-11.89476,11.89472 -21.10662,25.56023 -27.63559,40.99652c-6.76504,15.99434 -10.14755,32.73436 -10.14755,50.22008c0,17.48565 3.38245,34.22604 10.14746,50.22018c6.52924,15.43652 15.74114,29.10223 27.63569,40.99712c11.89488,11.89423 25.56036,21.10566 40.99642,27.6343c15.99407,6.76577 32.73413,10.14865 50.22018,10.14865c17.48565,0 34.22604,-3.38255 50.22018,-10.14865c15.43652,-6.52864 29.10223,-15.74007 40.99712,-27.6343c11.89423,-11.89555 21.10566,-25.56126 27.6343,-40.99712c6.76577,-15.99381 10.14865,-32.73387 10.14865,-50.22018c0,-17.48572 -3.38255,-34.22574 -10.14765,-50.22008c-6.5293,-15.43631 -15.7414,-29.10182 -27.63629,-40.99652c-11.89423,-11.89476 -25.5596,-21.10662 -40.99612,-27.63559c-15.99447,-6.76504 -32.73453,-10.14755 -50.22018,-10.14755c-17.48572,0 -34.22574,3.38252 -50.22008,10.14755zM280.30732,124.82083l-0.48561,16.80485l-4.20861,-0.12165l0.48551,-16.80475l-6.3577,-0.18372l0.11119,-3.85053l16.92431,0.489l-0.11129,3.85053zM244.21943,131.12055l10.93645,12.45257l4.80362,-1.2233l-5.09953,-20.0248l-4.00785,1.02064l3.43775,13.49932l-10.22367,-11.77128l-5.29551,1.34864l5.09953,20.02481l3.9934,-1.01697zM322.05657,152.55847c1.70572,-0.39439 3.0149,-1.52119 3.92555,-3.38042c0.52108,-1.06369 0.76518,-2.02497 0.73131,-2.88386c-0.03388,-0.85888 -0.24908,-1.64623 -0.64662,-2.3619c-0.39787,-0.7157 -0.92294,-1.38032 -1.5752,-1.99386c-0.6526,-0.61344 -1.32213,-1.21573 -2.00761,-1.80665c-1.26435,-1.01815 -2.10426,-1.82598 -2.52072,-2.42358c-0.41647,-0.5976 -0.47824,-1.1959 -0.18432,-1.79479c0.33278,-0.6793 0.85186,-1.04296 1.55627,-1.09089c0.7054,-0.04802 1.49649,0.14258 2.37227,0.5717c0.87578,0.42922 1.5483,0.96913 2.01658,1.61974c0.46828,0.65061 0.76419,1.494 0.88773,2.53019l3.98633,-0.84011c-0.2544,-2.85144 -1.98602,-5.06327 -5.19488,-6.63548c-2.21651,-1.08607 -4.16135,-1.42648 -5.83453,-1.02124c-1.67284,0.40521 -2.94018,1.48832 -3.803,3.24924c-0.47326,0.96535 -0.68647,1.85288 -0.63965,2.6627c0.04683,0.80982 0.27798,1.577 0.69345,2.30153c0.41514,0.72447 0.98504,1.42765 1.70971,2.10954c0.72433,0.68189 1.50546,1.38899 2.34437,2.12119c0.86482,0.74536 1.44966,1.31705 1.75255,1.71529c0.30388,0.39818 0.4882,0.78509 0.55396,1.16073c0.06576,0.37563 -0.00299,0.76903 -0.20425,1.18021c-0.35469,0.72403 -0.90666,1.12133 -1.65591,1.19193c-0.74991,0.0706 -1.63864,-0.14592 -2.66619,-0.64955c-0.68847,-0.33721 -1.25438,-0.71993 -1.69875,-1.14814c-0.44436,-0.42821 -0.78411,-0.88844 -1.01925,-1.38066c-0.2358,-0.4922 -0.41946,-1.14733 -0.55097,-1.96539l-3.99928,0.80016c0.16439,1.58794 0.71836,2.95121 1.66188,4.08987c0.94452,1.13867 2.23876,2.1109 3.88371,2.91672c2.37725,1.16492 4.41907,1.55018 6.12546,1.1558zM222.61932,157.13806l-10.28734,-17.92121l11.64096,-6.68231l1.85089,3.22423l-7.9895,4.58622l2.19283,3.81994l6.73332,-3.86527l1.85826,3.23729l-6.73332,3.86517l2.46772,4.29902l7.9895,-4.5862l1.91764,3.3408zM342.83112,159.66988l-5.15104,5.96794l-3.21019,-2.77055l5.09226,-5.9001l3.51506,-13.96714l3.48119,3.00463l-2.59644,9.17832l8.76773,-3.85187l3.35764,2.89736zM191.34097,156.87528l14.2812,14.93473l9.32339,-8.91541l-2.6622,-2.78408l-6.28039,6.00555l-11.61894,-12.15068zM274.99975,155.27182c22.01631,0 40.80848,7.78393 56.37652,23.35181c15.56738,15.56784 23.35106,34.35988 23.35106,56.37612c0,22.01564 -7.78402,40.80749 -23.35206,56.37552c-15.56738,15.56804 -34.35922,23.35206 -56.37552,23.35206c-22.01604,0 -40.80812,-7.78402 -56.37622,-23.35206c-15.5678,-15.56738 -23.3517,-34.35922 -23.3517,-56.37552l0,-0.001c0.00024,-22.01578 7.78418,-40.80752 23.35181,-56.37513c15.56784,-15.56787 34.35988,-23.35181 56.37612,-23.35181zM363.20115,172.08579l-8.20879,14.39751l2.72198,4.14275l17.27044,-11.34714l-2.27164,-3.45638l-11.64215,7.64945l7.7973,-13.50171l-3.00096,-4.56699l-17.26944,11.34714l2.26267,3.44393zM189.86583,195.43884l-14.25312,-16.45026l2.80438,-4.70758l21.26002,4.68775l-2.2083,3.70706l-4.30742,-0.96704l-4.07274,6.83684l2.91672,3.30165zM186.53164,185.63204l2.85016,-4.78449l-8.75843,-1.9849zM169.8297,201.7278l16.1245,4.75809l-1.19165,4.03824l-16.12446,-4.75809l-1.80017,6.10045l-3.6946,-1.09029l4.79186,-16.23904l3.6946,1.09019zM370.3329,215.69828c-1.5224,-0.46997 -2.76582,-1.23346 -3.73127,-2.29057c-0.96445,-1.05701 -1.71668,-2.48685 -2.2547,-4.28941c-1.83126,-6.13256 0.69112,-10.22577 7.56715,-12.27961c3.52005,-1.05113 6.35063,-1.05004 8.49374,0.00319c2.14311,1.05322 3.65156,3.0439 4.52634,5.97182c0.57787,1.93617 0.72234,3.61211 0.4344,5.0281c-0.28894,1.41589 -0.86781,2.60143 -1.73561,3.55661l-3.36761,-2.40664c0.54998,-0.66286 0.92061,-1.23067 1.11191,-1.70333c0.1913,-0.47266 0.29093,-0.97491 0.2979,-1.50695c0.00697,-0.53194 -0.08967,-1.13652 -0.29193,-1.81373c-0.48422,-1.62133 -1.37095,-2.70186 -2.65921,-3.24167c-1.28826,-0.53971 -3.14343,-0.44785 -5.56651,0.27569c-2.25968,0.67512 -3.82891,1.57749 -4.70767,2.70714c-0.87777,1.12974 -1.05611,2.56725 -0.53503,4.31253c0.35071,1.17308 0.84788,2.01937 1.49051,2.53886c0.64363,0.51939 1.41679,0.93506 2.32046,1.24701zM158.52371,284.21563c-6.46268,-15.27977 -9.77519,-31.25507 -9.93753,-47.92592h44.11432c0.29912,22.17326 8.33203,41.14355 24.09874,56.91085c16.07159,16.07152 35.47176,24.10728 58.20051,24.10728c22.72835,0 42.12896,-8.03543 58.20081,-24.10728c15.76664,-15.76664 23.79941,-34.73693 24.09831,-56.91085h44.11465c-0.1624,16.67085 -3.47421,32.64615 -9.93743,47.92592c-6.39845,15.127 -15.42656,28.51904 -27.08432,40.17614c-11.65776,11.65776 -25.04981,20.68587 -40.17614,27.08432c-15.67299,6.62894 -32.07828,9.94341 -49.21587,9.94341c-17.13673,0 -33.54176,-3.3148 -49.21508,-9.94341c-15.12718,-6.39845 -28.51958,-15.42656 -40.17722,-27.08432c-11.65758,-11.6571 -20.68549,-25.04915 -27.08375,-40.17614z" data-paper-data="{&quot;isBaseLogoContainer&quot;:true}" style="fill: rgb(0, 0, 0);"/></g></g></g></svg>